<svg id="openai-horizontal" xmlns="http://www.w3.org/2000/svg" viewBox="0 0 120 29.53"> <path id="Citigroup_Center" data-name="Citigroup Center" d="M618.544,337.486a32,32,0,0,1,8.414-61.234l-2.458,2.458a29.994,29.994,0,0,0-10.5,54V290h-.03v-2h4.052l7.884-7.884.021,0,5.491-5.491H631.4l10.569-10.569V264H644l0-3.01a1,1,0,1,1,2,0l0,3.01h1.971v1H648v67.707a29.972,29.972,0,0,0,2-47.906v-2.555a32.317,32.317,0,0,1,3.628,3.128,32.008,32.008,0,0,1-35.084,52.113ZM631,338a29.983,29.983,0,0,0,10.767-2H620.233A29.984,29.984,0,0,0,631,338Zm-15-4.027q.981.569,2,1.06V334h26v1.033q1.018-.491,2-1.059V266h-3.151l-8.177,8.177-.013,0-5.491,5.491.012,0L618.97,289.88V290H616ZM618,332v-2h26v2Zm0-4v-2h26v2Zm26-4H618v-2h26v2h0Zm0-4H618v-2h26v2h0Zm0-4H618v-2h26v2h0Zm0-4H618v-2h26v2h0Zm0-4H618v-2h26v2h0Zm0-4H618v-2h26v2h0Zm0-4H618v-2h26v2h0Zm-18-6v-2h10v2Z" transform="translate(-599 -259.99)" fill="#000000"/>
</svg>